<svg viewBox="0 0 141 47" xmlns="http://www.w3.org/2000/svg">
<!--    <g id="logo" stroke="none" stroke-width="1" fill="none" fill-rule="evenodd">-->
        <path d="M7.24668711,24.8355556 L18.1783895,30.7777778 L29.110092,24.8355556 L29.110092,31.0577778 L18.1783895,37 L7.24668711,31.0577778 L7.24668711,24.8355556 Z M18.1783895,9 L35.3567791,18.3333333 L35.3567791,30.7777778 L32.2334355,30.7777778 L32.2334355,20.0288889 L18.1783895,27.6666667 L1,18.3333333 L18.1783895,9 Z M53.8974819,19.0096 C53.6468992,18.7183985 53.3545572,18.4930675 53.020447,18.3336 C52.6863368,18.1741325 52.3383106,18.0944 51.9763579,18.0944 C51.6004839,18.0944 51.2628985,18.2122655 50.9635914,18.448 C50.6642844,18.6837345 50.5146331,19.0719973 50.5146331,19.6128 C50.5146331,20.0704023 50.6677646,20.4274654 50.9740323,20.684 C51.2803,20.9405346 51.7327341,21.2213318 52.3313482,21.5264 C52.6654584,21.6928008 53.0169649,21.8903989 53.3858782,22.1192 C53.7547915,22.3480011 54.092377,22.6287983 54.3986447,22.9616 C54.7049123,23.2944017 54.9589715,23.6930643 55.1608297,24.1576 C55.362688,24.6221357 55.4636156,25.1733301 55.4636156,25.8112 C55.4636156,26.601604 55.3383261,27.298397 55.0877435,27.9016 C54.8371608,28.504803 54.4995754,29.003998 54.074977,29.3992 C53.6503786,29.794402 53.1596617,30.0925323 52.6028113,30.2936 C52.045961,30.4946677 51.4682375,30.5952 50.8696234,30.5952 C49.9786629,30.5952 49.1677618,30.4288017 48.4368957,30.096 C47.7060297,29.7631983 47.1178653,29.3749356 46.6723851,28.9312 L48.3846913,26.4352 C48.7048802,26.7680017 49.073788,27.0349323 49.4914257,27.236 C49.9090635,27.4370677 50.3336555,27.5376 50.7652145,27.5376 C51.168931,27.5376 51.5099967,27.405868 51.7884218,27.1424 C52.066847,26.878932 52.2060575,26.511469 52.2060575,26.04 C52.2060575,25.5546642 52.0390049,25.1698681 51.7048947,24.8856 C51.3707845,24.6013319 50.8835478,24.2997349 50.2431699,23.9808 C49.8394534,23.7866657 49.4601048,23.5717345 49.1051128,23.336 C48.7501207,23.1002655 48.4368971,22.8160017 48.1654325,22.4832 C47.893968,22.1503983 47.681672,21.7621356 47.5285382,21.3184 C47.3754043,20.8746644 47.2988386,20.3477364 47.2988386,19.7376 C47.2988386,18.9194626 47.4345688,18.2157363 47.7060333,17.6264 C47.9774979,17.0370637 48.3324846,16.5552019 48.7710042,16.1808 C49.2095239,15.8063981 49.6967606,15.5290676 50.232729,15.3488 C50.7686975,15.1685324 51.3081381,15.0784 51.8510672,15.0784 C52.6585001,15.0784 53.3823947,15.210132 54.0227726,15.4736 C54.6631504,15.737068 55.1991108,16.0975977 55.6306698,16.5552 L53.8974819,19.0096 Z M62.0622589,18.3024 L62.0622589,30.2 L58.783819,30.2 L58.783819,18.3024 L56.0691873,18.3024 L56.0691873,15.4736 L64.7768906,15.4736 L64.7768906,18.3024 L62.0622589,18.3024 Z M72.6284409,30.2 L72.0228692,27.5168 L68.7026657,27.5168 L68.097094,30.2 L64.7560088,30.2 L68.3476754,15.4736 L72.5449137,15.4736 L76.1156986,30.2 L72.6284409,30.2 Z M70.4149719,18.6768 L70.3314448,18.6768 L69.0785378,24.9376 L71.6052335,24.9376 L70.4149719,18.6768 Z M86.8071713,29.3264 C86.3338485,29.6869351 85.7630855,29.9781322 85.0948651,30.2 C84.4266447,30.4218678 83.6401054,30.5328 82.7352237,30.5328 C81.8024994,30.5328 80.9707167,30.3456019 80.2398506,29.9712 C79.5089846,29.5967981 78.8894979,29.0733367 78.381372,28.4008 C77.8732461,27.7282633 77.4834567,26.920538 77.2119922,25.9776 C76.9405276,25.034662 76.8047974,23.9877391 76.8047974,22.8368 C76.8047974,21.6858609 76.9405276,20.6354714 77.2119922,19.6856 C77.4834567,18.7357286 77.8697658,17.9176034 78.3709311,17.2312 C78.8720964,16.5447966 79.4741818,16.0144019 80.1772053,15.64 C80.8802288,15.2655981 81.6632878,15.0784 82.5264058,15.0784 C83.5287364,15.0784 84.3674796,15.248265 85.0426606,15.588 C85.7178417,15.927735 86.2503218,16.3541308 86.640117,16.8672 L84.8234019,19.3008 C84.3222366,18.6074632 83.6401052,18.2608 82.7769872,18.2608 C82.3175857,18.2608 81.9208358,18.3821321 81.5867256,18.6248 C81.2526154,18.8674679 80.9741944,19.1967979 80.7514543,19.6128 C80.5287142,20.0288021 80.3651419,20.5141306 80.2607324,21.0688 C80.156323,21.6234694 80.1041191,22.2127969 80.1041191,22.8368 C80.1041191,23.4608031 80.1528427,24.0501306 80.2502915,24.6048 C80.3477403,25.1594694 80.5043521,25.6447979 80.7201316,26.0608 C80.9359111,26.4768021 81.2073716,26.8095988 81.5345212,27.0592 C81.8616707,27.3088012 82.2549404,27.4336 82.7143419,27.4336 C83.2155072,27.4336 83.6052966,27.329601 83.8837217,27.1216 L83.8837217,24.376 L82.2967062,24.376 L82.2967062,21.4848 L86.8071713,21.4848 L86.8071713,29.3264 Z M89.1041674,30.2 L89.1041674,15.4736 L96.245737,15.4736 L96.245737,18.4064 L92.2990801,18.4064 L92.2990801,21.2976 L95.9325103,21.2976 L95.9325103,24.0432 L92.2990801,24.0432 L92.2990801,27.2256 L96.4963184,27.2256 L96.4963184,30.2 L89.1041674,30.2 Z M109.192442,30.2 L108.586871,27.5168 L105.266667,27.5168 L104.661095,30.2 L101.32001,30.2 L104.911677,15.4736 L109.108915,15.4736 L112.6797,30.2 L109.192442,30.2 Z M106.978973,18.6768 L106.895446,18.6768 L105.642539,24.9376 L108.169235,24.9376 L106.978973,18.6768 Z M123.099709,20.0912 C123.099709,20.9093374 122.97442,21.6165304 122.723837,22.2128 C122.473255,22.8090696 122.13915,23.3013314 121.721512,23.6896 C121.303874,24.0778686 120.830558,24.3655991 120.301551,24.5528 C119.772543,24.7400009 119.236582,24.8336 118.693653,24.8336 L117.25281,24.8336 L117.25281,30.2 L113.97437,30.2 L113.97437,15.4736 L118.568363,15.4736 C119.09737,15.4736 119.629851,15.5498659 120.165819,15.7024 C120.701787,15.8549341 121.189024,16.1079982 121.627544,16.4616 C122.066063,16.8152018 122.42105,17.2901304 122.692515,17.8864 C122.963979,18.4826696 123.099709,19.2175956 123.099709,20.0912 Z M119.967442,20.1536 C119.967442,19.4879967 119.80735,19.0096015 119.487161,18.7184 C119.166972,18.4271985 118.777183,18.2816 118.317781,18.2816 L117.25281,18.2816 L117.25281,22.1296 L118.317781,22.1296 C118.777183,22.1296 119.166972,21.959735 119.487161,21.62 C119.80735,21.280265 119.967442,20.7914699 119.967442,20.1536 Z M134,20.0912 C134,20.9093374 133.874711,21.6165304 133.624128,22.2128 C133.373545,22.8090696 133.03944,23.3013314 132.621802,23.6896 C132.204165,24.0778686 131.730849,24.3655991 131.201841,24.5528 C130.672833,24.7400009 130.136873,24.8336 129.593944,24.8336 L128.153101,24.8336 L128.153101,30.2 L124.874661,30.2 L124.874661,15.4736 L129.468653,15.4736 C129.997661,15.4736 130.530141,15.5498659 131.06611,15.7024 C131.602078,15.8549341 132.089315,16.1079982 132.527834,16.4616 C132.966354,16.8152018 133.321341,17.2901304 133.592805,17.8864 C133.86427,18.4826696 134,19.2175956 134,20.0912 Z M130.867733,20.1536 C130.867733,19.4879967 130.707641,19.0096015 130.387452,18.7184 C130.067263,18.4271985 129.677473,18.2816 129.218072,18.2816 L128.153101,18.2816 L128.153101,22.1296 L129.218072,22.1296 C129.677473,22.1296 130.067263,21.959735 130.387452,21.62 C130.707641,21.280265 130.867733,20.7914699 130.867733,20.1536 Z" fill="#38B3FF" fill-rule="nonzero"></path>
<!--    </g>-->
</svg>